<?xml version="1.0" encoding="UTF-8"?>
<svg enable-background="new 0 0 512 512" version="1.1" viewBox="0 0 512 512" xml:space="preserve" xmlns="http://www.w3.org/2000/svg">
<path d="M405,30H45C20.147,30,0,50.147,0,75v45l30,30h390l30-30V75C450,50.147,429.853,30,405,30z" fill="#4DB5FF"/>
<path d="m405 30h-180v120h195l30-30v-45c0-24.853-20.147-45-45-45z" fill="#4D97FF"/>
<path d="M0,120v315c0,8.284,6.716,15,15,15h420c8.284,0,15-6.716,15-15V120H0z" fill="#E6EEFF"/>
<path d="M225,450h210c8.284,0,15-6.716,15-15V120H225V450z" fill="#DAE2F2"/>
<g fill="#A1A7B3">
	<path d="m105 210h-30c-8.291 0-15-6.709-15-15s6.709-15 15-15h30c8.291 0 15 6.709 15 15s-6.709 15-15 15z"/>
	<path d="m195 210h-30c-8.291 0-15-6.709-15-15s6.709-15 15-15h30c8.291 0 15 6.709 15 15s-6.709 15-15 15z"/>
</g>
<g fill="#979CA7">
	<path d="m285 210h-30c-8.291 0-15-6.709-15-15s6.709-15 15-15h30c8.291 0 15 6.709 15 15s-6.709 15-15 15z"/>
	<path d="m375 210h-30c-8.291 0-15-6.709-15-15s6.709-15 15-15h30c8.291 0 15 6.709 15 15s-6.709 15-15 15z"/>
</g>
<g fill="#A1A7B3">
	<path d="m105 270h-30c-8.291 0-15-6.709-15-15s6.709-15 15-15h30c8.291 0 15 6.709 15 15s-6.709 15-15 15z"/>
	<path d="m195 270h-30c-8.291 0-15-6.709-15-15s6.709-15 15-15h30c8.291 0 15 6.709 15 15s-6.709 15-15 15z"/>
</g>
<path d="m285 270h-30c-8.291 0-15-6.709-15-15s6.709-15 15-15h30c8.291 0 15 6.709 15 15s-6.709 15-15 15z" fill="#979CA7"/>
<g fill="#A1A7B3">
	<path d="m105 330h-30c-8.291 0-15-6.709-15-15s6.709-15 15-15h30c8.291 0 15 6.709 15 15s-6.709 15-15 15z"/>
	<path d="m195 330h-30c-8.291 0-15-6.709-15-15s6.709-15 15-15h30c8.291 0 15 6.709 15 15s-6.709 15-15 15z"/>
	<path d="m105 390h-30c-8.291 0-15-6.709-15-15s6.709-15 15-15h30c8.291 0 15 6.709 15 15s-6.709 15-15 15z"/>
	<path d="m195 390h-30c-8.291 0-15-6.709-15-15s6.709-15 15-15h30c8.291 0 15 6.709 15 15s-6.709 15-15 15z"/>
</g>
<g fill="#5C5F66">
	<path d="m90 90c-8.291 0-15-6.709-15-15v-60c0-8.291 6.709-15 15-15s15 6.709 15 15v60c0 8.291-6.709 15-15 15z"/>
	<path d="m180 90c-8.291 0-15-6.709-15-15v-60c0-8.291 6.709-15 15-15s15 6.709 15 15v60c0 8.291-6.709 15-15 15z"/>
</g>
<g fill="#53565C">
	<path d="m270 90c-8.291 0-15-6.709-15-15v-60c0-8.291 6.709-15 15-15s15 6.709 15 15v60c0 8.291-6.709 15-15 15z"/>
	<path d="m360 90c-8.291 0-15-6.709-15-15v-60c0-8.291 6.709-15 15-15s15 6.709 15 15v60c0 8.291-6.709 15-15 15z"/>
</g>
<path d="m377 512c-74.443 0-135-60.557-135-135s60.557-135 135-135 135 60.557 135 135-60.557 135-135 135z" fill="#A780FF"/>
<path d="m512 377c0-74.443-60.557-135-135-135v270c74.443 0 135-60.557 135-135z" fill="#9466FF"/>
<path d="m377 272c-57.891 0-105 47.109-105 105s47.109 105 105 105 105-47.109 105-105-47.109-105-105-105z" fill="#E6EEFF"/>
<path d="m482 377c0-57.891-47.109-105-105-105v210c57.891 0 105-47.109 105-105z" fill="#DAE2F2"/>
<path d="m437 392h-60c-8.291 0-15-6.709-15-15v-60c0-8.291 6.709-15 15-15s15 6.709 15 15v45h45c8.291 0 15 6.709 15 15s-6.709 15-15 15z" fill="#5C5F66"/>
<path d="m437 392c8.291 0 15-6.709 15-15s-6.709-15-15-15h-45v-45c0-8.291-6.709-15-15-15v90h60z" fill="#53565C"/>
</svg>
