<?xml version="1.0" encoding="UTF-8"?>
<svg enable-background="new 0 0 512.001 512.001" version="1.1" viewBox="0 0 512 512" xml:space="preserve" xmlns="http://www.w3.org/2000/svg">
<path d="m477.78 112.97-25.781-22.969c0-16.5-13.5-30-30-30-15.901 0-30 12.9-30 30v126.68l-90 82.606c4.294-0.956 98.688 28.436 103.2 28.436l46.802-39.779 37.5-25.787-11.719-149.19z" fill="#E3A76F"/>
<path d="m120 218.1v-128.1c0-17.1-14.099-30-30-30-16.5 0-30 13.5-30 30l-28.594 39.969 5.625 93.75 22.969 96.357c10.984-13.76 27.955-22.354 46.802-22.354 4.51 0 98.904 0.608 103.2 1.564l-90-81.181z" fill="#F2BB88"/>
<path d="m158.1 186.5c-11.7-11.699-30.901-11.699-42.601 0-11.256 11.256-11.892 30.409 0 42.301l30 30c6.232 6.228 5.75 15.552 0 21.299-5.042 5.606-15.916 5.652-20.999 0l-51.301-51.299c-8.401-8.401-13.2-19.801-13.2-31.8v-167c0-17.1-14.099-30-30-30-16.5 0-30 13.5-30 30v210.5c0 13.499 3.6 26.699 10.8 38.399l72.9 121.5c4.2 7.2 6.301 15 6.301 23.101v73.5c0 8.399 6.599 15 15 15h135v-207c0-23.399-9.3-45.899-25.8-62.401l-56.1-56.099z" fill="#F2D1A5"/>
<path d="m345.4 86.499c0 35.402-32.999 60.3-60.3 83.401-5.999 5.099-12.599 10.499-19.199 16.5-2.7 2.4-6.3 3.6-9.9 3.6s-7.2-1.199-9.901-3.6c-6.599-6-13.2-11.4-19.199-16.5-35.101-29.399-60.3-51-60.3-83.401 0-31.199 22.8-55.499 52.2-55.499 16.5 0 28.799 7.5 37.2 17.1 8.401-9.6 20.7-17.1 37.2-17.1 29.399 0 52.199 24.3 52.199 55.499z" fill="#FF3F2E"/>
<path d="M482,0c-15.901,0-30,12.9-30,30v167c0,11.999-4.799,23.399-13.2,31.8l-51.301,51.299  c-5.042,5.606-15.916,5.652-20.999,0c-5.75-5.747-6.232-15.071,0-21.299l30-30c5.7-5.7,8.699-13.5,8.699-21  c0-7.8-2.999-15.601-8.699-21.301c-11.7-11.699-30.901-11.699-42.601,0l-56.1,56.1C281.3,259.1,272,281.6,272,304.999V512h135  c8.401,0,15-6.601,15-15v-73.5c0-8.101,2.1-15.901,6.301-23.101l72.9-121.5c7.2-11.7,10.8-24.901,10.8-38.399V30  C512,13.5,498.5,0,482,0z" fill="#F2BB88"/>
<path d="m345.4 86.499c0 35.402-32.999 60.3-60.3 83.401-5.999 5.099-12.599 10.499-19.199 16.5-2.7 2.4-6.3 3.6-9.9 3.6v-141.9c8.401-9.6 20.7-17.1 37.2-17.1 29.399 0 52.199 24.3 52.199 55.499z" fill="#CF0404"/>
</svg>
