<?xml version="1.0" encoding="UTF-8"?>
<svg enable-background="new 0 0 512 512" version="1.1" viewBox="0 0 512 512" xml:space="preserve" xmlns="http://www.w3.org/2000/svg">
<path d="m214.58 251.56c12.28 10.365 24.979 21.083 38.473 32.778 2.819 2.443 6.321 3.665 9.824 3.665 3.502 0 7.005-1.222 9.824-3.665 13.492-11.693 26.189-22.41 38.469-32.773 21.342-18.014 39.773-33.57 55.767-48.66 31.053-29.298 59.787-62.553 59.787-107.11 0-25.329-8.695-49.05-24.483-66.794-16.637-18.698-39.7-28.995-64.94-28.995-28.172 0-52.593 13.321-70.622 38.522-1.352 1.889-2.617 3.779-3.802 5.649-1.184-1.871-2.449-3.76-3.801-5.649-18.029-25.201-42.45-38.522-70.622-38.522-25.24 0-48.303 10.297-64.939 28.994-15.788 17.744-24.483 41.465-24.483 66.794 0 27.525 10.681 52.924 33.611 79.934 20.008 23.565 48.707 47.788 81.937 75.836z" fill="#FF3F2E"/>
<path d="m503.03 374-72.001 96c-19.799 26.4-51 42.001-84 42.001h-133.8c-46.8 0-92.699-9.6-135.9-27.9l-3.3-92.401c20.099-96.301 119.7-120.3 177.3-69.6 6.301 5.099 13.5 8.401 20.7 9.3 2.1 0.601 3.9 0.601 5.7 0.601h54.3c5.4 0 10.499 1.5 15 4.2 8.699 4.799 14.7 14.399 15 25.499v0.3c0 11.1-6 20.7-15 25.8-4.501 2.701-9.6 4.2-15 4.2h-91.5c-8.401 0-15 6.599-15 15 0 8.399 6.599 15 15 15h116.4c15 0 25.8-6.301 35.099-16.8l68.101-78.6c10.8-11.7 29.399-12.601 40.499-3.001 2.701 2.1 5.099 4.501 6.899 7.5 6.903 10.202 6.002 29.102-4.497 42.901z" fill="#F2D1A5"/>
<path d="m122.03 347c0-24.814-20.186-45-45-45h-62c-8.291 0-15 6.709-15 15v180c0 8.291 6.709 15 15 15h62c24.814 0 45-20.186 45-45v-120z" fill="#1EA1E3"/>
<g fill="#F2BB88">
	<path d="m262.88 392h69.154c5.4 0 10.499-1.5 15-4.2 9-5.099 15-14.7 15-25.8v-0.3c-0.3-11.1-6.301-20.7-15-25.499-4.501-2.701-9.6-4.2-15-4.2h-54.3c-1.8 0-3.6 0-5.7-0.601-3.076-0.384-6.148-1.231-9.154-2.446v63.046z"/>
	<path d="m431.03 470 72.001-96c10.499-13.799 11.4-32.699 4.499-42.9-1.8-2.999-4.198-5.4-6.899-7.5-11.1-9.6-29.7-8.699-40.499 3.001l-68.101 78.6c-9.3 10.499-20.1 16.8-35.1 16.8h-94.055v90h84.154c33 0 64.201-15.601 84-42.001z"/>
</g>
<path d="m272.7 284.34c13.492-11.693 26.189-22.41 38.469-32.773 21.342-18.014 39.773-33.57 55.767-48.66 31.053-29.298 59.787-62.553 59.787-107.11 0-25.329-8.695-49.05-24.483-66.794-16.637-18.697-39.7-28.994-64.94-28.994-28.172 0-52.593 13.321-70.622 38.522-1.352 1.889-2.617 3.779-3.802 5.649v243.83c3.502 0 7.005-1.222 9.824-3.665z" fill="#CF0404"/>
</svg>
