<?xml version="1.0" encoding="UTF-8"?>
<svg enable-background="new 0 0 512 512" version="1.1" viewBox="0 0 512 512" xml:space="preserve" xmlns="http://www.w3.org/2000/svg">
<g fill="#BC6829">
	<path d="m170.58 248.57c-4.028-7.236-1.421-16.362 5.83-20.391l86.396-48.003c7.236-4.043 16.392-1.406 20.391 5.83 4.028 7.236 1.421 16.362-5.83 20.391l-86.396 48.003c-7.136 4-16.336 1.477-20.391-5.83z"/>
	<path d="m315.28 418.98-138.87-77.153c-7.251-4.028-9.858-13.154-5.83-20.391s13.154-9.902 20.391-5.83l138.87 77.153c7.251 4.028 9.858 13.154 5.83 20.391-4.055 7.306-13.255 9.829-20.391 5.83z"/>
</g>
<path d="M210,285c0,29.399-12.001,56.1-31.8,75L105,345l-3.3-0.601L31.8,360C12.001,341.1,0,314.399,0,285  c0-57.9,47.1-105,105-105S210,227.1,210,285z" fill="#FFDA45"/>
<path d="m210 285c0 29.399-12.001 56.1-31.8 75l-73.2-15v-165c57.9 0 105 47.1 105 105z" fill="#FFBC36"/>
<path d="M512,135c0,34.499-12.9,65.7-34.501,89.7L377,197.999l-5.7-1.5l-94.799,28.2  C254.9,200.7,242,169.499,242,135C242,60.601,302.601,0,377,0S512,60.601,512,135z" fill="#FFDA45"/>
<path d="M512,135c0,34.499-12.9,65.7-34.501,89.7L377,197.999V0C451.399,0,512,60.601,512,135z" fill="#FFBC36"/>
<path d="m453.2 182.7c-20.099-20.999-47.1-32.699-76.199-32.699-33.3 0-63.6 15.3-83.699 41.7-7.8 9.899-13.2 21.299-16.8 32.999 23.399 27.3 59.699 45.301 100.5 45.301 40.201 0 77.401-18.3 100.5-45.3-4.499-15.601-12.599-30-24.3-42.001z" fill="#368DCF"/>
<path d="m375 362c-41.4 0-75 33.6-75 75s33.6 75 75 75 75-33.6 75-75-33.6-75-75-75z" fill="#FFDA45"/>
<path d="m163.5 327.9c-14.401-17.701-35.7-27.9-58.5-27.9-24.6 0-47.701 11.999-61.5 32.399-6 8.401-9.9 17.7-11.7 27.601 20.099 19.2 46.199 30 73.2 30 27.299 0 54.3-11.1 73.2-30-2.1-11.7-7.2-22.8-14.7-32.1z" fill="#CF0404"/>
<path d="m105 240c-24.901 0-45 20.099-45 45 0 24.899 20.099 45 45 45s45-20.101 45-45c0-24.901-20.099-45-45-45z" fill="#FF3F2E"/>
<path d="m377 60c-32.999 0-60 27.001-60 60s27.001 60 60 60 60-27.001 60-60-27.001-60-60-60z" fill="#4AB8F7"/>
<path d="m450 437c0 41.4-33.6 75-75 75v-150c41.4 0 75 33.6 75 75z" fill="#FFBC36"/>
<path d="m477.5 224.7c-23.098 27-60.298 45.3-100.5 45.3v-120c29.099 0 56.1 11.7 76.199 32.699 11.701 12.001 19.801 26.4 24.3 42.001z" fill="#2B75AD"/>
<path d="m437 120c0 32.999-27.001 60-60 60v-120c32.999 0 60 27.001 60 60z" fill="#1EA1E3"/>
<path d="m178.2 360c-18.9 18.9-45.901 30-73.2 30v-90c22.8 0 44.099 10.199 58.5 27.9 7.5 9.3 12.6 20.4 14.7 32.1z" fill="#B80000"/>
<path d="m150 285c0 24.899-20.099 45-45 45v-90c24.901 0 45 20.099 45 45z" fill="#CF0404"/>
</svg>
