<svg id="Flat" height="512" viewBox="0 0 512 512" width="512" xmlns="http://www.w3.org/2000/svg"><g fill="#fe99a0"><path d="m467.2959 282.58594a23.9106 23.9106 0 0 1 -18.72266-9.06348l-7.61523-9.51855-20.30811 14.50586-9.2998-13.01954 19.7349-14.09668a24.14455 24.14455 0 0 1 -.21094-25.06543l18.26612-30.44433 13.71972 8.23242-18.26611 30.44336a8.0674 8.0674 0 0 0 -.41016 7.47754l7.90284-5.64453a24.02732 24.02732 0 0 1 35.45752 8.80664l1.28369 2.56738a24.09747 24.09747 0 0 1 -21.53174 34.81934zm-13.29883-27.89551 7.07031 8.83789a8.02834 8.02834 0 0 0 13.44971-8.60547l-1.28369-2.56738a8.02767 8.02767 0 0 0 -11.84717-2.94336z"/><path d="m352 392v96h-56l-16-80z"/><path d="m168 488h-56v-80h72z"/></g><path d="m440 328v160h-56l-16-80a33.44244 33.44244 0 0 1 -32.79 40h-103.21l-3.73 18.66016-4.27 21.33984h-56v-80h-80a32.00409 32.00409 0 0 1 -32-32v-80h32a57.44368 57.44368 0 0 1 56.65991-48h47.34009a95.297 95.297 0 0 1 52.84009-16h99.15991a95.99912 95.99912 0 0 1 96 96z" fill="#ffc7cc"/><path d="m136 248a63.41954 63.41954 0 0 0 -57.282-17.34361l-6.718 1.34361-1.424 8.54427a93.47948 93.47948 0 0 0 17.424 71.45573v-7.338a57.44364 57.44364 0 0 1 48-56.662z" fill="#ee818d"/><rect fill="#fe99a0" height="80" rx="40" width="104" x="24" y="296"/><path d="m256 216 18.04133 12.88665a50.5284 50.5284 0 0 1 13.95867 67.11335h-48l9.91828-9.91828a50.5284 50.5284 0 0 0 12.20647-51.70746z" fill="#fe99a0"/><path d="m192 248a79.99985 79.99985 0 0 1 63.99988-32h.00012l6.12475 18.37426a50.52838 50.52838 0 0 1 -12.20647 51.70746l-9.91828 9.91828v-.00007a48 48 0 0 0 -47.99993-48z" fill="#ee818d"/><path d="m184 312h-16a16.01833 16.01833 0 0 0 -16-16v-16a32.03635 32.03635 0 0 1 32 32z" fill="#fe99a0"/><circle cx="88" cy="336" fill="#ee818d" r="8"/><circle cx="56" cy="336" fill="#ee818d" r="8"/><circle cx="320" cy="104" fill="#eacf4d" r="80"/><path d="m352 80v-16h-24v-16h-16v16h-16a8.00008 8.00008 0 0 0 -8 8v32a8.00008 8.00008 0 0 0 8 8h40v16h-48v16h24v16h16v-16h16a8.00008 8.00008 0 0 0 8-8v-32a8.00008 8.00008 0 0 0 -8-8h-40v-16z" fill="#f2e368"/><path d="m255.68994 411.14014-7.37988 36.85986h-16.31006l8-40a8.00054 8.00054 0 1 1 15.68994 3.14014z" fill="#fe99a0"/></svg>