<svg xmlns="http://www.w3.org/2000/svg" fill-rule="evenodd" stroke-linejoin="round" stroke-miterlimit="1.414" clip-rule="evenodd" viewBox="0 0 1438 958"><style id="dark-mode-custom-style" type="text/css"/><g id="Artboard1" transform="matrix(.88384 0 0 .89533 170.58 88.637)"><path fill="none" d="M-193-99h1627V971H-193z"/><clipPath id="_clip1"><path d="M-193-99h1627V971H-193z"/></clipPath><g clip-path="url(#_clip1)"><g id="bg-elemets---Hero-section--" transform="matrix(1.13143 0 0 1.11691 -191.869 -6.296)"><path id="Path" fill="url(#_Linear2)" fill-rule="nonzero" d="M0 723.077V604.25c276.362 100.677 756.362 150.213 1440 148.606C985.541 884.889 505.541 907.184 0 819.743v-96.666z"/><path id="Path-Copy-2" fill="url(#_Linear3)" fill-rule="nonzero" d="M1579 712.077V593.25C1302.64 693.927 822.637 743.463 139 741.857c454.459 132.032 934.46 154.327 1440 66.886v-96.666z"/><path id="customersbg-b" fill="url(#_Linear4)" fill-rule="nonzero" d="M0-158.453c240 49.973 480 74.959 720 74.959s480-24.986 720-74.959V754.29c-240 49.974-480 74.96-720 74.96S240 804.264 0 754.29v-912.743z"/><path id="Oval" fill="url(#_Linear5)" d="M808-1.5C808 220.794 627.795 401 405.5 401S3 220.794 3-1.5"/><path id="Oval1" fill="url(#_Linear6)" d="M2.25 597.25C333.207 597.25 601.5 328.956 601.5-2H0"/><path id="Oval2" fill="url(#_Linear7)" fill-rule="nonzero" d="M1442.25.43C1222.3.43 1044 178.733 1044 398.679c0 219.948 178.3 398.25 398.25 398.25"/><path id="Oval3" fill="url(#_Linear8)" fill-rule="nonzero" d="M702.125 201.785c-109.974 190.48-44.711 434.046 145.77 544.019 190.485 109.975 434.045 44.711 544.015-145.769 109.98-190.48 44.71-434.046-145.77-544.02-190.48-109.973-434.041-44.71-544.015 145.77z"/></g></g></g><defs><linearGradient id="_Linear2" x1="0" x2="1" y1="0" y2="0" gradientTransform="scale(-305.578) rotate(64.488 1.445 -2.775)" gradientUnits="userSpaceOnUse"><stop offset="0" stop-color="#9ef8f7"/><stop offset="1" stop-color="#64e2e1"/></linearGradient><linearGradient id="_Linear3" x1="0" x2="1" y1="0" y2="0" gradientTransform="rotate(173.28 766.645 426.245) scale(956.974)" gradientUnits="userSpaceOnUse"><stop offset="0" stop-color="#616cf6"/><stop offset="1" stop-color="#76e3d4"/></linearGradient><linearGradient id="_Linear4" x1="0" x2="1" y1="0" y2="0" gradientTransform="scale(-1933.33) rotate(-43.203 -.166 1.082)" gradientUnits="userSpaceOnUse"><stop offset="0" stop-color="#67abfd"/><stop offset="1" stop-color="#3454d1"/></linearGradient><linearGradient id="_Linear5" x1="0" x2="1" y1="0" y2="0" gradientTransform="scale(-678.183) rotate(52.125 .21 -1.422)" gradientUnits="userSpaceOnUse"><stop offset="0" stop-color="#67abfd" stop-opacity=".102"/><stop offset="1" stop-color="#0575fb" stop-opacity=".102"/></linearGradient><linearGradient id="_Linear6" x1="0" x2="1" y1="0" y2="0" gradientTransform="scale(-1009.692) rotate(52.125 .395 -1.046)" gradientUnits="userSpaceOnUse"><stop offset="0" stop-color="#67abfd" stop-opacity=".102"/><stop offset="1" stop-color="#0575fb" stop-opacity=".102"/></linearGradient><linearGradient id="_Linear7" x1="0" x2="1" y1="0" y2="0" gradientTransform="rotate(51.887 439.2 971.456) scale(858.175)" gradientUnits="userSpaceOnUse"><stop offset="0" stop-color="#67abfd" stop-opacity=".2"/><stop offset="1" stop-color="#4253de" stop-opacity=".2"/></linearGradient><linearGradient id="_Linear8" x1="0" x2="1" y1="0" y2="0" gradientTransform="scale(-1066.844) rotate(83.282 -.018 -1.09)" gradientUnits="userSpaceOnUse"><stop offset="0" stop-color="#67abfd" stop-opacity=".2"/><stop offset="1" stop-color="#4253de" stop-opacity=".2"/></linearGradient></defs></svg>