<svg xmlns="http://www.w3.org/2000/svg" width="399" height="172" viewBox="0 0 399 172"><g transform="translate(-899 -355)"><rect width="399" height="172" rx="16" transform="translate(899 355)" fill="rgba(204,197,203,0.2)"/><g transform="translate(-92.5 -12.815)"><text transform="translate(1027 502)" fill="#707070" font-size="16" font-family="Nexa-ExtraBold, Nexa" font-weight="800" letter-spacing="0.012em"><tspan x="0" y="0">m</tspan></text><text transform="translate(1239 502)" fill="#707070" font-size="16" font-family="Nexa-ExtraBold, Nexa" font-weight="800" letter-spacing="0.012em"><tspan x="0" y="0">f</tspan></text><text transform="translate(1132 502)" fill="#707070" font-size="16" font-family="Nexa-ExtraBold, Nexa" font-weight="800" letter-spacing="0.012em"><tspan x="0" y="0">w</tspan></text><text transform="translate(1344 502)" fill="#707070" font-size="16" font-family="Nexa-ExtraBold, Nexa" font-weight="800" letter-spacing="0.012em"><tspan x="0" y="0">s</tspan></text><text transform="translate(1083 502)" fill="#707070" font-size="16" font-family="Nexa-ExtraBold, Nexa" font-weight="800" letter-spacing="0.012em"><tspan x="0" y="0">t</tspan></text><text transform="translate(1292 502)" fill="#707070" font-size="16" font-family="Nexa-ExtraBold, Nexa" font-weight="800" letter-spacing="0.012em"><tspan x="0" y="0">s</tspan></text><text transform="translate(1188 502)" fill="#707070" font-size="16" font-family="Nexa-ExtraBold, Nexa" font-weight="800" letter-spacing="0.012em"><tspan x="0" y="0">t</tspan></text><path d="M6,0H6a6,6,0,0,1,6,6V59a0,0,0,0,1,0,0H0a0,0,0,0,1,0,0V6A6,6,0,0,1,6,0Z" transform="translate(1028 423)" fill="#f9b317"/><path d="M6,0H6a6,6,0,0,1,6,6V59a0,0,0,0,1,0,0H0a0,0,0,0,1,0,0V6A6,6,0,0,1,6,0Z" transform="translate(1237 423)" fill="#f9b317"/><path d="M6,0H6a6,6,0,0,1,6,6V70a0,0,0,0,1,0,0H0a0,0,0,0,1,0,0V6A6,6,0,0,1,6,0Z" transform="translate(1187 412)" fill="#f9b317"/><path d="M6,0H6a6,6,0,0,1,6,6V81.185a0,0,0,0,1,0,0H0a0,0,0,0,1,0,0V6A6,6,0,0,1,6,0Z" transform="translate(1081 400.815)" fill="#f9b317"/><path d="M6,0H6a6,6,0,0,1,6,6V81.185a0,0,0,0,1,0,0H0a0,0,0,0,1,0,0V6A6,6,0,0,1,6,0Z" transform="translate(1290 400.815)" fill="#f9b317"/><path d="M6,0H6a6,6,0,0,1,6,6V62.185a0,0,0,0,1,0,0H0a0,0,0,0,1,0,0V6A6,6,0,0,1,6,0Z" transform="translate(1134 419.815)" fill="#f9b317"/><path d="M6,0H6a6,6,0,0,1,6,6V62.185a0,0,0,0,1,0,0H0a0,0,0,0,1,0,0V6A6,6,0,0,1,6,0Z" transform="translate(1342 419.815)" fill="#f9b317"/><path d="M6,0H6a6,6,0,0,1,6,6V30a0,0,0,0,1,0,0H0a0,0,0,0,1,0,0V6A6,6,0,0,1,6,0Z" transform="translate(1028 452)" fill="#c675e8"/><path d="M6,0H6a6,6,0,0,1,6,6V30a0,0,0,0,1,0,0H0a0,0,0,0,1,0,0V6A6,6,0,0,1,6,0Z" transform="translate(1237 452)" fill="#c675e8"/><path d="M6,0H6a6,6,0,0,1,6,6V48a0,0,0,0,1,0,0H0a0,0,0,0,1,0,0V6A6,6,0,0,1,6,0Z" transform="translate(1187 434)" fill="#c675e8"/><path d="M6,0H6a6,6,0,0,1,6,6V57a0,0,0,0,1,0,0H0a0,0,0,0,1,0,0V6A6,6,0,0,1,6,0Z" transform="translate(1081 425)" fill="#c675e8"/><path d="M6,0H6a6,6,0,0,1,6,6V57a0,0,0,0,1,0,0H0a0,0,0,0,1,0,0V6A6,6,0,0,1,6,0Z" transform="translate(1290 425)" fill="#c675e8"/><path d="M6,0H6a6,6,0,0,1,6,6V29a0,0,0,0,1,0,0H0a0,0,0,0,1,0,0V6A6,6,0,0,1,6,0Z" transform="translate(1134 453)" fill="#c675e8"/><path d="M6,0H6a6,6,0,0,1,6,6V29a0,0,0,0,1,0,0H0a0,0,0,0,1,0,0V6A6,6,0,0,1,6,0Z" transform="translate(1342 453)" fill="#c675e8"/><line x2="359.5" transform="translate(1011.5 481.5)" fill="none" stroke="#fff" stroke-linecap="round" stroke-width="4"/></g></g></svg>